<mxfile host="app.diagrams.net" agent="Mozilla/5.0 (Windows NT 10.0; Win64; x64) AppleWebKit/537.36 (KHTML, like Gecko) Chrome/131.0.0.0 Safari/537.36" version="26.0.4">
  <diagram name="Trang-1" id="c1bnNnMWqtwwIpwvUxgX">
    <mxGraphModel dx="2336" dy="1990" grid="1" gridSize="10" guides="1" tooltips="1" connect="1" arrows="1" fold="1" page="1" pageScale="1" pageWidth="827" pageHeight="1169" math="0" shadow="0">
      <root>
        <mxCell id="0" />
        <mxCell id="1" parent="0" />
        <mxCell id="G4RjkPP-04moCM5C5x74-49" value="&lt;div&gt;&lt;br&gt;&lt;/div&gt;&lt;div&gt;&lt;br&gt;&lt;/div&gt;Thiết bị" style="shape=hexagon;perimeter=hexagonPerimeter2;whiteSpace=wrap;html=1;fixedSize=1;dashed=1;" vertex="1" parent="1">
          <mxGeometry x="24" y="201" width="120" height="80" as="geometry" />
        </mxCell>
        <mxCell id="G4RjkPP-04moCM5C5x74-50" value="B1. Gửi bản tin đăng nhập số 3" style="rounded=0;whiteSpace=wrap;html=1;" vertex="1" parent="1">
          <mxGeometry x="321" y="100" width="120" height="60" as="geometry" />
        </mxCell>
        <mxCell id="G4RjkPP-04moCM5C5x74-51" value="TCP Server" style="ellipse;shape=cloud;whiteSpace=wrap;html=1;direction=south;dashed=1;" vertex="1" parent="1">
          <mxGeometry x="491" y="61" width="190" height="260" as="geometry" />
        </mxCell>
        <mxCell id="G4RjkPP-04moCM5C5x74-52" value="" style="endArrow=classic;html=1;rounded=0;entryX=0.361;entryY=-0.024;entryDx=0;entryDy=0;entryPerimeter=0;" edge="1" parent="1" target="G4RjkPP-04moCM5C5x74-56">
          <mxGeometry width="50" height="50" relative="1" as="geometry">
            <mxPoint x="443" y="129.79" as="sourcePoint" />
            <mxPoint x="580" y="310" as="targetPoint" />
            <Array as="points">
              <mxPoint x="550" y="130" />
            </Array>
          </mxGeometry>
        </mxCell>
        <mxCell id="G4RjkPP-04moCM5C5x74-53" value="" style="endArrow=classic;html=1;rounded=0;entryX=0.25;entryY=1;entryDx=0;entryDy=0;exitX=-0.015;exitY=0.497;exitDx=0;exitDy=0;exitPerimeter=0;" edge="1" parent="1" source="G4RjkPP-04moCM5C5x74-64" target="G4RjkPP-04moCM5C5x74-54">
          <mxGeometry width="50" height="50" relative="1" as="geometry">
            <mxPoint x="360" y="586" as="sourcePoint" />
            <mxPoint x="280" y="340" as="targetPoint" />
            <Array as="points">
              <mxPoint x="80" y="575" />
            </Array>
          </mxGeometry>
        </mxCell>
        <mxCell id="G4RjkPP-04moCM5C5x74-54" value="B3. Đồng bộ TT lái xe xuống thiết bị" style="rounded=0;whiteSpace=wrap;html=1;" vertex="1" parent="1">
          <mxGeometry x="50" y="360" width="120" height="60" as="geometry" />
        </mxCell>
        <mxCell id="G4RjkPP-04moCM5C5x74-55" value="ghi vào thẻ?" style="rhombus;whiteSpace=wrap;html=1;" vertex="1" parent="1">
          <mxGeometry x="534" y="433" width="100" height="90" as="geometry" />
        </mxCell>
        <mxCell id="G4RjkPP-04moCM5C5x74-56" value="B2. chuẩn bị thông tin lái xe theo UID thẻ trên hệ thống DB" style="rounded=0;whiteSpace=wrap;html=1;" vertex="1" parent="1">
          <mxGeometry x="480" y="343" width="200" height="60" as="geometry" />
        </mxCell>
        <mxCell id="G4RjkPP-04moCM5C5x74-57" value="Set SYNC = 0" style="rounded=0;whiteSpace=wrap;html=1;" vertex="1" parent="1">
          <mxGeometry x="370" y="455" width="120" height="60" as="geometry" />
        </mxCell>
        <mxCell id="G4RjkPP-04moCM5C5x74-58" value="" style="endArrow=classic;html=1;rounded=0;" edge="1" parent="1">
          <mxGeometry width="50" height="50" relative="1" as="geometry">
            <mxPoint x="584" y="403" as="sourcePoint" />
            <mxPoint x="584" y="433" as="targetPoint" />
          </mxGeometry>
        </mxCell>
        <mxCell id="G4RjkPP-04moCM5C5x74-60" value="" style="endArrow=classic;html=1;rounded=0;entryX=1;entryY=0.5;entryDx=0;entryDy=0;" edge="1" parent="1" target="G4RjkPP-04moCM5C5x74-64">
          <mxGeometry width="50" height="50" relative="1" as="geometry">
            <mxPoint x="584.5" y="524" as="sourcePoint" />
            <mxPoint x="500" y="580" as="targetPoint" />
            <Array as="points">
              <mxPoint x="585" y="575" />
            </Array>
          </mxGeometry>
        </mxCell>
        <mxCell id="G4RjkPP-04moCM5C5x74-61" value="Có" style="text;html=1;align=center;verticalAlign=middle;whiteSpace=wrap;rounded=0;" vertex="1" parent="1">
          <mxGeometry x="534" y="545" width="60" height="30" as="geometry" />
        </mxCell>
        <mxCell id="G4RjkPP-04moCM5C5x74-63" value="" style="endArrow=classic;html=1;rounded=0;exitX=0;exitY=0.5;exitDx=0;exitDy=0;entryX=0.667;entryY=1;entryDx=0;entryDy=0;entryPerimeter=0;" edge="1" parent="1" source="G4RjkPP-04moCM5C5x74-57" target="G4RjkPP-04moCM5C5x74-54">
          <mxGeometry width="50" height="50" relative="1" as="geometry">
            <mxPoint x="290" y="470" as="sourcePoint" />
            <mxPoint x="300" y="340" as="targetPoint" />
            <Array as="points">
              <mxPoint x="130" y="485" />
            </Array>
          </mxGeometry>
        </mxCell>
        <mxCell id="G4RjkPP-04moCM5C5x74-64" value="Set SYNC = 1" style="rounded=0;whiteSpace=wrap;html=1;" vertex="1" parent="1">
          <mxGeometry x="369" y="545" width="120" height="60" as="geometry" />
        </mxCell>
        <mxCell id="G4RjkPP-04moCM5C5x74-65" value="" style="endArrow=classic;html=1;rounded=0;entryX=1.005;entryY=0.387;entryDx=0;entryDy=0;entryPerimeter=0;" edge="1" parent="1" target="G4RjkPP-04moCM5C5x74-57">
          <mxGeometry width="50" height="50" relative="1" as="geometry">
            <mxPoint x="534" y="478" as="sourcePoint" />
            <mxPoint x="498" y="477.5" as="targetPoint" />
          </mxGeometry>
        </mxCell>
        <mxCell id="G4RjkPP-04moCM5C5x74-66" value="Không" style="text;html=1;align=center;verticalAlign=middle;whiteSpace=wrap;rounded=0;" vertex="1" parent="1">
          <mxGeometry x="480" y="450" width="60" height="30" as="geometry" />
        </mxCell>
        <mxCell id="G4RjkPP-04moCM5C5x74-67" value="" style="endArrow=classic;html=1;rounded=0;exitX=0.084;exitY=0.009;exitDx=0;exitDy=0;exitPerimeter=0;" edge="1" parent="1" source="G4RjkPP-04moCM5C5x74-54">
          <mxGeometry width="50" height="50" relative="1" as="geometry">
            <mxPoint x="95.16000000000031" y="268.97999999999956" as="sourcePoint" />
            <mxPoint x="110" as="targetPoint" />
            <Array as="points">
              <mxPoint x="60" y="350" />
              <mxPoint x="60" y="260" />
              <mxPoint x="60" y="80" />
              <mxPoint x="60" />
            </Array>
          </mxGeometry>
        </mxCell>
        <mxCell id="G4RjkPP-04moCM5C5x74-68" value="" style="edgeStyle=orthogonalEdgeStyle;rounded=0;orthogonalLoop=1;jettySize=auto;html=1;" edge="1" parent="1" source="G4RjkPP-04moCM5C5x74-69" target="G4RjkPP-04moCM5C5x74-77">
          <mxGeometry relative="1" as="geometry" />
        </mxCell>
        <mxCell id="G4RjkPP-04moCM5C5x74-69" value="Check sync" style="rhombus;whiteSpace=wrap;html=1;" vertex="1" parent="1">
          <mxGeometry x="110" y="-40" width="80" height="80" as="geometry" />
        </mxCell>
        <mxCell id="G4RjkPP-04moCM5C5x74-70" value="" style="endArrow=classic;html=1;rounded=0;" edge="1" parent="1">
          <mxGeometry width="50" height="50" relative="1" as="geometry">
            <mxPoint x="190" as="sourcePoint" />
            <mxPoint x="230" as="targetPoint" />
          </mxGeometry>
        </mxCell>
        <mxCell id="G4RjkPP-04moCM5C5x74-71" value="START" style="ellipse;whiteSpace=wrap;html=1;" vertex="1" parent="1">
          <mxGeometry x="-150" y="200" width="120" height="80" as="geometry" />
        </mxCell>
        <mxCell id="G4RjkPP-04moCM5C5x74-72" value="" style="endArrow=classic;html=1;rounded=0;exitX=1;exitY=0.5;exitDx=0;exitDy=0;" edge="1" parent="1" source="G4RjkPP-04moCM5C5x74-71">
          <mxGeometry width="50" height="50" relative="1" as="geometry">
            <mxPoint x="30" y="240" as="sourcePoint" />
            <mxPoint x="160" y="130" as="targetPoint" />
            <Array as="points">
              <mxPoint x="100" y="240" />
              <mxPoint x="100" y="130" />
            </Array>
          </mxGeometry>
        </mxCell>
        <mxCell id="G4RjkPP-04moCM5C5x74-73" value="Quẹt thẻ RFID" style="rounded=0;whiteSpace=wrap;html=1;" vertex="1" parent="1">
          <mxGeometry x="160" y="100" width="120" height="60" as="geometry" />
        </mxCell>
        <mxCell id="G4RjkPP-04moCM5C5x74-75" value="END" style="ellipse;whiteSpace=wrap;html=1;" vertex="1" parent="1">
          <mxGeometry x="654" y="-40" width="120" height="80" as="geometry" />
        </mxCell>
        <mxCell id="G4RjkPP-04moCM5C5x74-76" value="Có" style="text;html=1;align=center;verticalAlign=middle;whiteSpace=wrap;rounded=0;" vertex="1" parent="1">
          <mxGeometry x="180" y="-45" width="60" height="30" as="geometry" />
        </mxCell>
        <mxCell id="G4RjkPP-04moCM5C5x74-77" value="Ghi xuống thẻ" style="rounded=0;whiteSpace=wrap;html=1;" vertex="1" parent="1">
          <mxGeometry x="230" y="-30" width="100" height="60" as="geometry" />
        </mxCell>
        <mxCell id="G4RjkPP-04moCM5C5x74-78" value="Set SYNC = 0, gửi bản tin số 3" style="rounded=0;whiteSpace=wrap;html=1;" vertex="1" parent="1">
          <mxGeometry x="369" y="-30" width="90" height="60" as="geometry" />
        </mxCell>
        <mxCell id="G4RjkPP-04moCM5C5x74-79" value="" style="endArrow=classic;html=1;rounded=0;entryX=0;entryY=0.5;entryDx=0;entryDy=0;" edge="1" parent="1" target="G4RjkPP-04moCM5C5x74-75">
          <mxGeometry width="50" height="50" relative="1" as="geometry">
            <mxPoint x="460" as="sourcePoint" />
            <mxPoint x="580" y="-40" as="targetPoint" />
            <Array as="points">
              <mxPoint x="560" />
              <mxPoint x="560" y="120" />
              <mxPoint x="580" y="120" />
              <mxPoint x="580" />
            </Array>
          </mxGeometry>
        </mxCell>
        <mxCell id="G4RjkPP-04moCM5C5x74-80" value="" style="endArrow=classic;html=1;rounded=0;" edge="1" parent="1">
          <mxGeometry width="50" height="50" relative="1" as="geometry">
            <mxPoint x="330" y="-1" as="sourcePoint" />
            <mxPoint x="370" y="-1" as="targetPoint" />
          </mxGeometry>
        </mxCell>
        <mxCell id="G4RjkPP-04moCM5C5x74-82" value="" style="endArrow=classic;html=1;rounded=0;entryX=0.551;entryY=-0.009;entryDx=0;entryDy=0;entryPerimeter=0;" edge="1" parent="1" target="G4RjkPP-04moCM5C5x74-75">
          <mxGeometry width="50" height="50" relative="1" as="geometry">
            <mxPoint x="150" y="-40" as="sourcePoint" />
            <mxPoint x="700" y="-50" as="targetPoint" />
            <Array as="points">
              <mxPoint x="150" y="-80" />
              <mxPoint x="720" y="-80" />
            </Array>
          </mxGeometry>
        </mxCell>
        <mxCell id="G4RjkPP-04moCM5C5x74-83" value="Không" style="text;html=1;align=center;verticalAlign=middle;whiteSpace=wrap;rounded=0;" vertex="1" parent="1">
          <mxGeometry x="150" y="-120" width="60" height="30" as="geometry" />
        </mxCell>
        <mxCell id="G4RjkPP-04moCM5C5x74-84" value="" style="endArrow=none;dashed=1;html=1;dashPattern=1 3;strokeWidth=2;rounded=0;" edge="1" parent="1">
          <mxGeometry width="50" height="50" relative="1" as="geometry">
            <mxPoint x="40" y="50" as="sourcePoint" />
            <mxPoint x="40" y="60" as="targetPoint" />
            <Array as="points">
              <mxPoint x="40" y="-160" />
              <mxPoint x="620" y="-160" />
              <mxPoint x="620" y="60" />
            </Array>
          </mxGeometry>
        </mxCell>
        <mxCell id="G4RjkPP-04moCM5C5x74-85" value="B4" style="text;html=1;align=center;verticalAlign=middle;whiteSpace=wrap;rounded=0;" vertex="1" parent="1">
          <mxGeometry x="40" y="-160" width="60" height="30" as="geometry" />
        </mxCell>
        <mxCell id="G4RjkPP-04moCM5C5x74-86" value="" style="endArrow=classic;html=1;rounded=0;" edge="1" parent="1">
          <mxGeometry width="50" height="50" relative="1" as="geometry">
            <mxPoint x="280" y="129.57" as="sourcePoint" />
            <mxPoint x="320" y="129.57" as="targetPoint" />
          </mxGeometry>
        </mxCell>
      </root>
    </mxGraphModel>
  </diagram>
</mxfile>
